# Blender 5.1.1
# www.blender.org
mtllib grid.mtl
o map
v -1.052000 1.060994 -0.022625
v -0.999994 1.008988 0.029382
v -0.999994 -0.991000 0.029382
v -1.052000 -1.043006 -0.022625
v 1.052000 1.060994 -0.022625
v 0.999994 1.008988 0.029382
v 0.999994 -0.991000 0.029382
v 1.052000 -1.043006 -0.022625
v -0.972947 0.981941 -0.022625
v -0.972947 0.981941 0.029401
v 0.972947 0.981941 -0.022625
v 0.972947 0.981941 0.029401
v -0.972947 -0.963953 0.029401
v -0.972947 -0.963953 -0.022625
v 0.972947 -0.963953 0.029401
v 0.972947 -0.963953 -0.022625
v -0.999994 1.008988 0.866862
v -1.052000 1.060994 0.866862
v -1.052000 -1.043006 0.866862
v -0.999994 -0.991000 0.866862
v 0.999994 1.008988 0.866862
v 1.052000 1.060994 0.866862
v 1.052000 -1.043006 0.866862
v 0.999994 -0.991000 0.866862
vn -0.0000 -0.0000 1.0000
vn -0.0000 -0.0000 -1.0000
vn -0.0000 0.0007 1.0000
vn -0.0007 -0.0000 1.0000
vn -0.0000 -0.0007 1.0000
vn 0.0007 -0.0000 1.0000
vn -0.0000 1.0000 -0.0000
vn -0.0000 -1.0000 -0.0000
vn -1.0000 -0.0000 -0.0000
vn 1.0000 -0.0000 -0.0000
vt 0.042969 0.035156
vt 0.013526 0.986474
vt 0.013526 0.013526
vt 0.986474 0.013526
vt 0.986474 0.986474
vt 0.000000 0.000000
vt 0.000000 1.000000
vt 1.000000 0.000000
vt 1.000000 1.000000
s 0
g map_Empty
usemtl Empty
f 17/1/1 21/1/1 22/1/1 18/1/1
f 18/1/1 19/1/1 20/1/1 17/1/1
f 19/1/1 23/1/1 24/1/1 20/1/1
f 21/1/1 24/1/1 23/1/1 22/1/1
f 12/2/1 10/3/1 13/4/1 15/5/1
f 11/2/2 16/5/2 14/4/2 9/3/2
f 2/6/3 10/3/3 12/2/3 6/7/3
f 1/6/2 5/7/2 11/2/2 9/3/2
f 3/8/4 13/4/4 10/3/4 2/6/4
f 4/8/2 1/6/2 9/3/2 14/4/2
f 7/9/5 15/5/5 13/4/5 3/8/5
f 8/9/2 4/8/2 14/4/2 16/5/2
f 6/7/6 12/2/6 15/5/6 7/9/6
f 5/7/2 8/9/2 16/5/2 11/2/2
f 24/1/7 7/1/7 3/1/7 20/1/7
f 23/1/8 19/1/8 4/1/8 8/1/8
f 17/1/8 2/1/8 6/1/8 21/1/8
f 18/1/7 22/1/7 5/1/7 1/1/7
f 21/1/9 6/1/9 7/1/9 24/1/9
f 22/1/10 23/1/10 8/1/10 5/1/10
f 20/1/10 3/1/10 2/1/10 17/1/10
f 19/1/9 18/1/9 1/1/9 4/1/9
